HIERARCHY
ROOT Hips
{
  OFFSET 373.837 88.1643 177.628
  CHANNELS 6 Xposition Yposition Zposition Zrotation Xrotation Yrotation
  JOINT RightUpLeg
  {
    OFFSET -9.27602 -1.55371 -0.0617006
    CHANNELS 3 Zrotation Xrotation Yrotation
    JOINT RightLeg
    {
      OFFSET 0.0569767 -41.8713 0.0644562
      CHANNELS 3 Zrotation Xrotation Yrotation
      JOINT RightFoot
      {
        OFFSET -0.463049 -43.0064 -0.0336586
        CHANNELS 3 Zrotation Xrotation Yrotation
        End Site
        {
          OFFSET 0 -7.69 17.5
        }
      }
    }
  }
  JOINT LeftUpLeg
  {
    OFFSET 9.29312 -1.63815 0.0236341
    CHANNELS 3 Zrotation Xrotation Yrotation
    JOINT LeftLeg
    {
      OFFSET 0.0670365 -41.8776 -0.0578197
      CHANNELS 3 Zrotation Xrotation Yrotation
      JOINT LeftFoot
      {
        OFFSET 0.591956 -40.8352 0.210268
        CHANNELS 3 Zrotation Xrotation Yrotation
        End Site
        {
          OFFSET 0 -7.69 17.5
        }
      }
    }
  }
  JOINT Spine
  {
    OFFSET 0.0229142 14.2949 0.0394214
    CHANNELS 3 Zrotation Xrotation Yrotation
    JOINT Spine1
    {
      OFFSET 0.0328969 9.71943 0.0194292
      CHANNELS 3 Zrotation Xrotation Yrotation
      JOINT Spine2
      {
        OFFSET 0.0292955 10.1244 -0.00440821
        CHANNELS 3 Zrotation Xrotation Yrotation
        JOINT Spine3
        {
          OFFSET 0.024556 9.71184 0.0101567
          CHANNELS 3 Zrotation Xrotation Yrotation
          JOINT Neck
          {
            OFFSET 0.152325 10.3757 0.0664015
            CHANNELS 3 Zrotation Xrotation Yrotation
            JOINT Head
            {
              OFFSET 0.134553 9.4858 0.0499874
              CHANNELS 3 Zrotation Xrotation Yrotation
              End Site
              {
                OFFSET 0 15.95 0
              }
            }
          }
          JOINT RightShoulder
          {
            OFFSET -3.19519 6.89024 -0.0330231
            CHANNELS 3 Zrotation Xrotation Yrotation
            JOINT RightArm
            {
              OFFSET -12.6524 0.0927817 0.0603028
              CHANNELS 3 Zrotation Xrotation Yrotation
              JOINT RightForeArm
              {
                OFFSET -26.4983 -0.141459 0.202928
                CHANNELS 3 Zrotation Xrotation Yrotation
                JOINT RightHand
                {
                  OFFSET -25.9883 -0.0240172 0.0141731
                  CHANNELS 3 Zrotation Xrotation Yrotation
                  JOINT RightHandThumb1
                  {
                    OFFSET -2.48905 0.190105 3.12053
                    CHANNELS 3 Zrotation Xrotation Yrotation
                    JOINT RightHandThumb2
                    {
                      OFFSET -3.68274 0 0
                      CHANNELS 3 Zrotation Xrotation Yrotation
                      JOINT RightHandThumb3
                      {
                        OFFSET -2.55832 0 0
                        CHANNELS 3 Zrotation Xrotation Yrotation
                        End Site
                        {
                          OFFSET -2.194 0 0
                        }
                      }
                    }
                  }
                  JOINT RightInHandIndex
                  {
                    OFFSET -3.22368 0.508421 1.97842
                    CHANNELS 3 Zrotation Xrotation Yrotation
                    JOINT RightHandIndex1
                    {
                      OFFSET -5.21684 -0.091368 0.999158
                      CHANNELS 3 Zrotation Xrotation Yrotation
                      JOINT RightHandIndex2
                      {
                        OFFSET -3.61937 0 0
                        CHANNELS 3 Zrotation Xrotation Yrotation
                        JOINT RightHandIndex3
                        {
                          OFFSET -2.0521 0 0
                          CHANNELS 3 Zrotation Xrotation Yrotation
                          End Site
                          {
                            OFFSET -1.805 0 0
                          }
                        }
                      }
                    }
                  }
                  JOINT RightInHandMiddle
                  {
                    OFFSET -3.38211 0.517263 0.756737
                    CHANNELS 3 Zrotation Xrotation Yrotation
                    JOINT RightHandMiddle1
                    {
                      OFFSET -5.17411 -0.084 0.313895
                      CHANNELS 3 Zrotation Xrotation Yrotation
                      JOINT RightHandMiddle2
                      {
                        OFFSET -3.94947 0 0
                        CHANNELS 3 Zrotation Xrotation Yrotation
                        JOINT RightHandMiddle3
                        {
                          OFFSET -2.47579 0 0
                          CHANNELS 3 Zrotation Xrotation Yrotation
                          End Site
                          {
                            OFFSET -1.975 0 0
                          }
                        }
                      }
                    }
                  }
                  JOINT RightInHandRing
                  {
                    OFFSET -3.36516 0.537895 -0.128947
                    CHANNELS 3 Zrotation Xrotation Yrotation
                    JOINT RightHandRing1
                    {
                      OFFSET -4.63474 -0.022105 -0.478947
                      CHANNELS 3 Zrotation Xrotation Yrotation
                      JOINT RightHandRing2
                      {
                        OFFSET -3.44238 0 0
                        CHANNELS 3 Zrotation Xrotation Yrotation
                        JOINT RightHandRing3
                        {
                          OFFSET -2.3881 0 0
                          CHANNELS 3 Zrotation Xrotation Yrotation
                          End Site
                          {
                            OFFSET -1.857 0 0
                          }
                        }
                      }
                    }
                  }
                  JOINT RightInHandPinky
                  {
                    OFFSET -3.16105 0.469368 -1.20179
                    CHANNELS 3 Zrotation Xrotation Yrotation
                    JOINT RightHandPinky1
                    {
                      OFFSET -4.14105 -0.022105 -1.09053
                      CHANNELS 3 Zrotation Xrotation Yrotation
                      JOINT RightHandPinky2
                      {
                        OFFSET -2.75653 0 0
                        CHANNELS 3 Zrotation Xrotation Yrotation
                        JOINT RightHandPinky3
                        {
                          OFFSET -1.74189 0 0
                          CHANNELS 3 Zrotation Xrotation Yrotation
                          End Site
                          {
                            OFFSET -1.645 0 0
                          }
                        }
                      }
                    }
                  }
                }
              }
            }
          }
          JOINT LeftShoulder
          {
            OFFSET 3.28609 6.87948 -0.0751467
            CHANNELS 3 Zrotation Xrotation Yrotation
            JOINT LeftArm
            {
              OFFSET 12.831 -0.0663252 -0.1321
              CHANNELS 3 Zrotation Xrotation Yrotation
              JOINT LeftForeArm
              {
                OFFSET 26.5106 -0.082189 -0.0903645
                CHANNELS 3 Zrotation Xrotation Yrotation
                JOINT LeftHand
                {
                  OFFSET 25.9965 -0.0307163 -0.0535747
                  CHANNELS 3 Zrotation Xrotation Yrotation
                  JOINT LeftHandThumb1
                  {
                    OFFSET 2.48905 0.190105 3.12053
                    CHANNELS 3 Zrotation Xrotation Yrotation
                    JOINT LeftHandThumb2
                    {
                      OFFSET 3.68274 0 0
                      CHANNELS 3 Zrotation Xrotation Yrotation
                      JOINT LeftHandThumb3
                      {
                        OFFSET 2.55832 0 0
                        CHANNELS 3 Zrotation Xrotation Yrotation
                        End Site
                        {
                          OFFSET 2.194 0 0
                        }
                      }
                    }
                  }
                  JOINT LeftInHandIndex
                  {
                    OFFSET 3.22368 0.508421 1.97842
                    CHANNELS 3 Zrotation Xrotation Yrotation
                    JOINT LeftHandIndex1
                    {
                      OFFSET 5.21684 -0.091368 0.999158
                      CHANNELS 3 Zrotation Xrotation Yrotation
                      JOINT LeftHandIndex2
                      {
                        OFFSET 3.61937 0 0
                        CHANNELS 3 Zrotation Xrotation Yrotation
                        JOINT LeftHandIndex3
                        {
                          OFFSET 2.0521 0 0
                          CHANNELS 3 Zrotation Xrotation Yrotation
                          End Site
                          {
                            OFFSET 1.805 0 0
                          }
                        }
                      }
                    }
                  }
                  JOINT LeftInHandMiddle
                  {
                    OFFSET 3.38211 0.517263 0.756737
                    CHANNELS 3 Zrotation Xrotation Yrotation
                    JOINT LeftHandMiddle1
                    {
                      OFFSET 5.17411 -0.084 0.313895
                      CHANNELS 3 Zrotation Xrotation Yrotation
                      JOINT LeftHandMiddle2
                      {
                        OFFSET 3.94947 0 0
                        CHANNELS 3 Zrotation Xrotation Yrotation
                        JOINT LeftHandMiddle3
                        {
                          OFFSET 2.47579 0 0
                          CHANNELS 3 Zrotation Xrotation Yrotation
                          End Site
                          {
                            OFFSET 1.975 0 0
                          }
                        }
                      }
                    }
                  }
                  JOINT LeftInHandRing
                  {
                    OFFSET 3.36516 0.537895 -0.128947
                    CHANNELS 3 Zrotation Xrotation Yrotation
                    JOINT LeftHandRing1
                    {
                      OFFSET 4.63474 -0.022105 -0.478947
                      CHANNELS 3 Zrotation Xrotation Yrotation
                      JOINT LeftHandRing2
                      {
                        OFFSET 3.44238 0 0
                        CHANNELS 3 Zrotation Xrotation Yrotation
                        JOINT LeftHandRing3
                        {
                          OFFSET 2.3881 0 0
                          CHANNELS 3 Zrotation Xrotation Yrotation
                          End Site
                          {
                            OFFSET 1.857 0 0
                          }
                        }
                      }
                    }
                  }
                  JOINT LeftInHandPinky
                  {
                    OFFSET 3.16105 0.469368 -1.20179
                    CHANNELS 3 Zrotation Xrotation Yrotation
                    JOINT LeftHandPinky1
                    {
                      OFFSET 4.14105 -0.022105 -1.09053
                      CHANNELS 3 Zrotation Xrotation Yrotation
                      JOINT LeftHandPinky2
                      {
                        OFFSET 2.75653 0 0
                        CHANNELS 3 Zrotation Xrotation Yrotation
                        JOINT LeftHandPinky3
                        {
                          OFFSET 1.74189 0 0
                          CHANNELS 3 Zrotation Xrotation Yrotation
                          End Site
                          {
                            OFFSET 1.645 0 0
                          }
                        }
                      }
                    }
                  }
                }
              }
            }
          }
        }
      }
    }
  }
}
MOTION
Frames:	7
Frame Time:	0.00833333
373.837 88.1643 177.628 26.7352 13.1379 -70.57 -17.3232 -57.794 -21.9479 -0.989558 22.5012 -10.7618 6.36922 8.54318 24.3011 18.9448 -50.9807 7.10013 3.56258 31.2574 -2.33038 -13.4715 -9.34832 -16.8915 -4.71639 12.8211 13.7955 -0.89637 3.18298 3.40687 -1.52298 5.07198 5.62651 -0.604778 -0.465912 -0.398634 -0.606522 -0.477137 -0.394455 -11.422 -8.73531 -6.88776 -2.69987 -11.6429 24.2465 71.8638 -5.02369 55.3951 15.9489 -59.2621 6.17463 12.9361 -22.2507 -17.0472 28.184 10.7294 19.1592 3.15952e-15 -3.97569e-16 -10 1.25504e-14 -2.08724e-15 -10 -3.18055e-15 -1.11319e-14 -6.36111e-15 19.9818 0.871897 2.3964 24 -2.73329e-15 -5.56597e-15 20 0 2.14687e-14 -3.18055e-15 -1.11319e-14 -6.36111e-15 20 -5.96354e-15 -5.56597e-15 24 -2.18663e-15 -1.59028e-14 20 -2.78299e-15 -8.74653e-15 -3.18055e-15 -1.11319e-14 -6.36111e-15 19.9748 -1.02565 -2.81938 24 -1.15295e-14 -6.36111e-15 20 1.43125e-14 1.59028e-15 -3.18055e-15 -1.11319e-14 -6.36111e-15 19.7815 -3.00948 -8.30515 24 -5.36719e-15 -1.27222e-14 20 -6.75868e-15 -6.36111e-15 12.9558 -14.9345 -34.6271 -36.6843 26.0091 -68.3681 15.949 -44.8453 19.2351 -22.0609 -22.9359 9.61608 -28.184 10.7294 -19.1592 6.45924e-15 0 10 -5.89842e-15 -3.18055e-15 10 1.76556e-31 6.36111e-15 -1.59028e-15 -19.9818 0.871897 -2.3964 -24 -4.77083e-15 6.36111e-15 -20 0 -9.54166e-15 1.76556e-31 6.36111e-15 -1.59028e-15 -20 6.36111e-15 -1.59028e-15 -24 -3.18055e-15 -9.54166e-15 -20 1.59028e-15 -1.27222e-14 1.76556e-31 6.36111e-15 -1.59028e-15 -19.9748 -1.02565 2.81938 -24 6.36111e-15 -3.18055e-15 -20 -1.98785e-15 -9.54166e-15 1.76556e-31 6.36111e-15 -1.59028e-15 -19.7815 -3.00948 8.30515 -24 1.03368e-14 -7.95139e-15 -20 1.19271e-15 -6.36111e-15 
373.852 88.1643 177.668 26.6778 12.9515 -70.8666 -16.9862 -57.7366 -21.466 -1.03984 22.4496 -10.6812 6.39833 8.57805 24.3505 19.0294 -50.8061 7.31088 3.48511 31.3703 -2.22624 -13.4154 -9.42922 -16.83 -4.80209 12.8587 13.8765 -0.915193 3.19444 3.42315 -1.55357 5.08911 5.65072 -0.604778 -0.465912 -0.398634 -0.606522 -0.477137 -0.394455 -11.5342 -8.74772 -6.78318 -2.71559 -11.5542 24.196 72.0743 -5.47248 55.0476 17.5634 -59.4994 7.93864 12.8994 -22.2615 -16.9694 28.184 10.7294 19.1592 7.71124e-16 4.37326e-15 -10 1.73749e-14 6.95746e-15 -10 -6.36111e-15 -6.36111e-15 -3.18055e-15 19.9818 0.871897 2.3964 24 6.90777e-15 2.3059e-14 20 1.47101e-14 9.93923e-14 -6.36111e-15 -6.36111e-15 -3.18055e-15 20 -1.19271e-15 6.36111e-15 24 -1.98785e-15 2.78299e-14 20 2.38542e-14 9.78021e-14 -6.36111e-15 -6.36111e-15 -3.18055e-15 19.9748 -1.02565 -2.81938 24 1.19271e-14 1.43125e-14 20 2.38542e-14 1.01778e-13 -6.36111e-15 -6.36111e-15 -3.18055e-15 19.7815 -3.00948 -8.30515 24 -7.7526e-15 2.38542e-14 20 -1.59028e-15 4.6118e-14 13.031 -15.0061 -34.9149 -36.6436 26.0246 -68.4274 15.9099 -44.1537 19.1688 -22.0419 -22.8852 9.62286 -28.184 10.7294 -19.1592 9.68886e-15 0 10 1.40401e-14 -6.36111e-15 10 -4.41391e-32 -3.18055e-15 -7.95139e-16 -19.9818 0.871897 -2.3964 -24 -6.36111e-15 2.22639e-14 -20 -6.75868e-15 1.27222e-14 -4.41391e-32 -3.18055e-15 -7.95139e-16 -20 -1.59028e-15 3.18055e-15 -24 -7.95139e-15 -4.77083e-15 -20 3.57812e-15 -6.36111e-15 -4.41391e-32 -3.18055e-15 -7.95139e-16 -19.9748 -1.02565 2.81938 -24 3.18055e-15 2.06736e-14 -20 -4.77083e-15 3.18055e-15 -4.41391e-32 -3.18055e-15 -7.95139e-16 -19.7815 -3.00948 8.30515 -24 -2.38542e-15 7.95139e-15 -20 -1.98785e-15 3.18055e-15 
373.861 88.1643 177.711 26.6113 12.7639 -71.1641 -16.6585 -57.6725 -21.0084 -1.10284 22.3902 -10.5988 6.43651 8.62592 24.4184 19.1149 -50.6237 7.50668 3.3974 31.4869 -2.10542 -13.3603 -9.51375 -16.7686 -4.96418 12.927 14.1046 -0.949438 3.2169 3.47466 -1.60946 5.12316 5.73041 -0.604778 -0.465912 -0.398634 -0.606522 -0.477137 -0.394455 -11.5701 -8.78027 -6.87119 -2.62984 -11.517 23.7757 72.3242 -5.85964 54.7151 19.2394 -59.668 9.75206 12.8912 -22.2415 -16.8914 28.184 10.7294 19.1592 -9.40845e-15 1.59028e-15 -10 3.57794e-15 1.97542e-15 -10 6.36111e-15 -7.15625e-15 -7.15625e-15 19.9818 0.871897 2.3964 24 -5.91384e-15 -3.97569e-15 20 1.41137e-14 8.34896e-14 6.36111e-15 -7.15625e-15 -7.15625e-15 20 -8.74653e-15 -3.18055e-15 24 1.49089e-16 2.38542e-15 20 1.47101e-14 8.34896e-14 6.36111e-15 -7.15625e-15 -7.15625e-15 19.9748 -1.02565 -2.81938 24 -3.18055e-15 -3.18055e-15 20 1.19271e-14 7.79236e-14 6.36111e-15 -7.15625e-15 -7.15625e-15 19.7815 -3.00948 -8.30515 24 -6.65929e-15 9.54166e-15 20 -6.75868e-15 3.18055e-14 13.1638 -15.2137 -35.4016 -36.597 26.0442 -68.4777 15.8564 -43.46 19.0853 -22.0085 -22.8295 9.63727 -28.184 10.7294 -19.1592 1.12164e-15 -6.36111e-15 10 1.58677e-14 1.59028e-15 10 -4.77083e-15 -6.36111e-15 -7.95139e-16 -19.9818 0.871897 -2.3964 -24 -3.18055e-15 1.43125e-14 -20 -1.98785e-15 3.18055e-15 -4.77083e-15 -6.36111e-15 -7.95139e-16 -20 0 3.18055e-15 -24 -9.54166e-15 -3.18055e-15 -20 3.97569e-16 -1.27222e-14 -4.77083e-15 -6.36111e-15 -7.95139e-16 -19.9748 -1.02565 2.81938 -24 4.77083e-15 1.43125e-14 -20 -4.37326e-15 -0 -4.77083e-15 -6.36111e-15 -7.95139e-16 -19.7815 -3.00948 8.30515 -24 0 1.27222e-14 -20 -5.1684e-15 1.59028e-15 
373.868 88.1643 177.757 26.5584 12.6509 -71.3429 -16.4806 -57.6166 -20.8158 -1.17139 22.3325 -10.5137 6.46764 8.67533 24.4977 19.1424 -50.5219 7.53315 3.30094 31.6123 -1.97463 -13.3041 -9.60985 -16.7071 -4.96838 12.9396 14.0718 -0.950779 3.21897 3.46518 -1.61147 5.12578 5.71478 -0.612135 -0.465912 -0.389381 -0.613922 -0.477138 -0.385175 -11.6918 -8.76596 -6.70691 -2.5591 -11.3368 22.9154 72.3061 -5.09581 54.9169 20.4491 -60.3793 11.3556 12.8766 -22.1908 -16.8049 28.184 10.7294 19.1592 -3.86054e-15 -3.57812e-15 -10 -1.06906e-15 -6.06293e-15 -10 -6.36111e-15 -7.95139e-15 -5.56597e-15 19.9818 0.871897 2.3964 24 -1.19395e-14 -1.66979e-14 20 -1.83876e-14 -1.31198e-13 -6.36111e-15 -7.95139e-15 -5.56597e-15 20 -7.95139e-16 -0 24 -1.36416e-14 -1.98785e-14 20 -1.19271e-14 -9.46215e-14 -6.36111e-15 -7.95139e-15 -5.56597e-15 19.9748 -1.02565 -2.81938 24 4.42296e-15 -0 20 -1.59028e-15 -5.00937e-14 -6.36111e-15 -7.95139e-15 -5.56597e-15 19.7815 -3.00948 -8.30515 24 -6.95746e-16 -1.27222e-14 20 -3.97569e-16 -1.43125e-14 13.2188 -15.2775 -35.6834 -36.5246 26.0807 -68.562 15.8576 -42.8 19.0419 -21.9646 -22.7547 9.65488 -28.184 10.7294 -19.1592 -4.07085e-15 4.77083e-15 10 -7.30047e-15 4.77083e-15 10 1.59028e-15 -4.77083e-15 -0 -19.9818 0.871897 -2.3964 -24 -6.36111e-15 3.65764e-14 -20 -5.96354e-15 2.06736e-14 1.59028e-15 -4.77083e-15 -0 -20 -6.36111e-15 1.74931e-14 -24 -5.56597e-15 1.74931e-14 -20 -3.57812e-15 6.36111e-15 1.59028e-15 -4.77083e-15 -0 -19.9748 -1.02565 2.81938 -24 3.18055e-15 3.33958e-14 -20 -4.77083e-15 2.22639e-14 1.59028e-15 -4.77083e-15 -0 -19.7815 -3.00948 8.30515 -24 -7.95139e-16 2.22639e-14 -20 -2.78299e-15 2.38542e-14 
373.874 88.1643 177.803 26.5057 12.5251 -71.5414 -16.2939 -57.5598 -20.601 -1.22941 22.2701 -10.4318 6.49139 8.73084 24.5854 19.1701 -50.4024 7.56016 3.19007 31.7253 -1.81401 -13.2443 -9.69796 -16.6458 -4.94576 12.9408 13.9803 -0.946818 3.21687 3.44137 -1.60481 5.12194 5.67655 -0.62175 -0.465913 -0.374833 -0.623595 -0.477139 -0.370579 -11.8465 -8.73397 -6.44923 -2.55918 -11.1382 22.4165 72.1543 -4.23341 55.2672 21.4059 -61.4564 12.9212 12.827 -22.1744 -16.7221 28.184 10.7294 19.1592 7.44067e-15 5.56597e-15 -10 1.93251e-14 -2.98177e-16 -10 -9.54166e-15 -6.36111e-15 1.19271e-15 19.9818 0.871897 2.3964 24 -7.45443e-17 -8.54774e-15 20 -3.67752e-15 -9.34288e-15 -9.54166e-15 -6.36111e-15 1.19271e-15 20 -8.15017e-15 -1.55052e-14 24 -1.53313e-14 -1.70955e-14 20 2.16675e-14 8.70677e-14 -9.54166e-15 -6.36111e-15 1.19271e-15 19.9748 -1.02565 -2.81938 24 -1.54058e-15 -1.98785e-14 20 1.70955e-14 5.1684e-14 -9.54166e-15 -6.36111e-15 1.19271e-15 19.7815 -3.00948 -8.30515 24 -7.10655e-15 -1.27222e-14 20 -7.55382e-15 1.27222e-14 13.2407 -15.292 -35.9017 -36.4927 26.0737 -68.567 15.7843 -42.0933 18.9057 -21.9025 -22.5793 9.68389 -28.184 10.7294 -19.1592 -5.61801e-15 -4.77083e-15 10 -0 0 10 0 0 -0 -19.9818 0.871897 -2.3964 -24 -9.54166e-15 3.49861e-14 -20 -4.37326e-15 2.38542e-14 0 0 -0 -20 0 2.3059e-14 -24 -7.15625e-15 2.22639e-14 -20 -1.19271e-15 2.06736e-14 0 0 -0 -19.9748 -1.02565 2.81938 -24 -3.97569e-15 3.65764e-14 -20 -1.03368e-14 2.22639e-14 0 0 -0 -19.7815 -3.00948 8.30515 -24 -7.95139e-16 3.65764e-14 -20 -8.54774e-15 2.8625e-14 
373.885 88.1643 177.868 26.465 12.3903 -71.7446 -16.1234 -57.506 -20.4076 -1.2988 22.2123 -10.3401 6.51904 8.78111 24.688 19.1876 -50.2841 7.57668 3.0625 31.8451 -1.63755 -13.1758 -9.79555 -16.581 -4.69165 12.8547 13.3898 -0.896938 3.18374 3.29671 -1.52268 5.07112 5.44672 -0.647018 -0.465916 -0.321357 -0.649022 -0.477141 -0.316984 -12.2304 -8.62161 -5.50459 -2.80948 -10.7495 22.9743 72.3154 -4.32645 55.1654 23.0121 -61.82 14.8517 12.7642 -22.1762 -16.633 28.184 10.7294 19.1592 1.82758e-15 -7.95139e-15 -10 -7.51077e-15 -5.96354e-15 -10 -3.18055e-15 -3.77691e-15 -2.78299e-15 19.9818 0.871897 2.3964 24 -1.31936e-14 -2.47487e-14 20 -1.60096e-13 -9.40748e-13 -3.18055e-15 -3.77691e-15 -2.78299e-15 20 -9.54166e-15 -2.18663e-14 24 -6.86428e-15 -3.02153e-14 20 -1.0635e-14 -3.53837e-14 -3.18055e-15 -3.77691e-15 -2.78299e-15 19.9748 -1.02565 -2.81938 24 -3.47873e-15 -3.65764e-14 20 -2.98177e-15 -3.73715e-14 -3.18055e-15 -3.77691e-15 -2.78299e-15 19.7815 -3.00948 -8.30515 24 -8.82107e-15 -3.33958e-14 20 -1.15295e-14 -3.33958e-14 13.0781 -14.9371 -35.509 -36.4389 26.1228 -68.6326 15.8058 -41.3888 18.8434 -21.8815 -23.4751 9.63696 -28.184 10.7294 -19.1592 -1.31989e-14 1.59028e-15 10 -7.30047e-15 4.77083e-15 10 1.59028e-15 4.77083e-15 -7.95139e-16 -19.9818 0.871897 -2.3964 -24 -1.59028e-15 1.43125e-14 -20 -1.19271e-15 -3.18055e-15 1.59028e-15 4.77083e-15 -7.95139e-16 -20 3.18055e-15 7.95139e-15 -24 -3.97569e-15 -3.18055e-15 -20 1.59028e-15 -6.36111e-15 1.59028e-15 4.77083e-15 -7.95139e-16 -19.9748 -1.02565 2.81938 -24 -7.95139e-16 1.27222e-14 -20 -2.38542e-15 -3.18055e-15 1.59028e-15 4.77083e-15 -7.95139e-16 -19.7815 -3.00948 8.30515 -24 4.77083e-15 1.74931e-14 -20 -1.19271e-15 -1.59028e-15 
373.901 88.1643 177.942 26.4343 12.2445 -71.9968 -15.912 -57.4705 -20.1722 -1.37391 22.1442 -10.2305 6.54674 8.85295 24.7965 19.2328 -50.1669 7.63915 2.93075 31.979 -1.45634 -13.1026 -9.89908 -16.5015 -4.60262 12.8113 13.104 -0.881133 3.16852 3.22462 -1.49645 5.04791 5.33107 -0.662896 -0.465917 -0.289195 -0.665009 -0.477143 -0.284736 -12.4767 -8.56838 -4.93617 -2.88851 -10.4787 23.0991 72.513 -4.51519 55.0024 24.72 -62.0301 16.8172 12.7129 -22.1627 -16.532 28.184 10.7294 19.1592 -3.22962e-15 0 -10 1.27432e-14 -9.93923e-16 -10 1.27222e-14 -9.93923e-15 -1.05356e-14 19.9818 0.871897 2.3964 24 1.21678e-15 1.92821e-14 20 -1.5125e-13 -8.32808e-13 1.27222e-14 -9.93923e-15 -1.05356e-14 20 -4.77083e-15 3.37934e-15 24 2.26195e-15 1.2921e-14 20 9.29318e-14 4.84438e-13 1.27222e-14 -9.93923e-15 -1.05356e-14 19.9748 -1.02565 -2.81938 24 1.00363e-14 2.14687e-14 20 3.16068e-14 2.01965e-13 1.27222e-14 -9.93923e-15 -1.05356e-14 19.7815 -3.00948 -8.30515 24 -1.0312e-15 2.38542e-14 20 3.97569e-15 5.88403e-14 13.0521 -14.8107 -35.4731 -36.4161 26.1426 -68.658 15.784 -40.6534 18.7298 -21.8848 -24.8914 9.56048 -28.184 10.7294 -19.1592 1.05301e-14 -4.77083e-15 10 3.51003e-15 -1.59028e-15 10 4.77083e-15 1.59028e-15 -3.97569e-16 -19.9818 0.871897 -2.3964 -24 -5.56597e-15 2.22639e-14 -20 0 1.43125e-14 4.77083e-15 1.59028e-15 -3.97569e-16 -20 -1.59028e-15 6.36111e-15 -24 -7.15625e-15 1.59028e-15 -20 -1.59028e-15 1.59028e-15 4.77083e-15 1.59028e-15 -3.97569e-16 -19.9748 -1.02565 2.81938 -24 4.77083e-15 1.90833e-14 -20 -4.37326e-15 6.36111e-15 4.77083e-15 1.59028e-15 -3.97569e-16 -19.7815 -3.00948 8.30515 -24 1.59028e-15 1.59028e-14 -20 -3.37934e-15 1.59028e-14 
